REM MD5 91816d2e6442816f4e700c7379f4615f
FILE "Moorhen 3 - Chicken Chase (Europe) (En,Fr,De).bin" BINARY
  TRACK 01 MODE2/2352
    INDEX 01 00:00:00
  TRACK 02 AUDIO
    INDEX 00 00:16:47
    INDEX 01 00:18:47
  TRACK 03 AUDIO
    INDEX 00 01:02:25
    INDEX 01 01:04:25
  TRACK 04 AUDIO
    INDEX 00 01:21:65
    INDEX 01 01:23:65
REM LEADOUT 05:23:65
